# xmcd
#
# Track frame offsets:
#	150
#	29792
#	47382
#	69125
#	94565
#	116520
#	140840
#	173912
#	196715
#	209840
#	220797
#	256840
#	281450
#	300810
#	321070
#
# Disc length: 4519
#
# Revision: 2
# Processed by: cddbd v1.5.1PL0 Copyright (c) Steve Scherf et al.
# Submitted via: EasyCDDAExtractor 7.1.0.1
# Normalized: r1:DSETVAR1
#
DISCID=cf11a50f
DTITLE=Various Artist - Best of San Francisco Blues - live
DYEAR=1997
DGENRE=Blues
TTITLE0=John Lee Hooker - Should've been gone
TTITLE1=John Hammond - Evil
TTITLE2=Elvin Bishop - Elvin's blues
TTITLE3=AB Skhy - Willie and the hand jive
TTITLE4=Jefferson Airplane - Come back baby
TTITLE5=Commander Cody - Milk cow blues
TTITLE6=John Lee Hooker - Hard time blues
TTITLE7=John Hammond - Hey Bo Diddley
TTITLE8=Taj Mahal - Hesitation blues
TTITLE9=Doc Watson - Windy and warm
TTITLE10=John Lee Hooker - Hobo blues
TTITLE11=Taj Mahal - Guitar blues 2
TTITLE12=John Hammond - So many roads, so many trains
TTITLE13=John Lee Hooker - Monologue - Sally Mae
TTITLE14=Chambers Brothers - Mustang Sally
EXTD=
EXTT0=
EXTT1=
EXTT2=
EXTT3=
EXTT4=
EXTT5=
EXTT6=
EXTT7=
EXTT8=
EXTT9=
EXTT10=
EXTT11=
EXTT12=
EXTT13=
EXTT14=
PLAYORDER=
